<svg xmlns="http://www.w3.org/2000/svg" xmlns:xlink="http://www.w3.org/1999/xlink" width="40" zoomAndPan="magnify" viewBox="0 0 30 30.000001" height="40" preserveAspectRatio="xMidYMid meet" version="1.0"><defs><g/><clipPath id="e00ecc7889"><path d="M 3.265625 2.902344 L 26.488281 2.902344 L 26.488281 26.128906 L 3.265625 26.128906 Z M 3.265625 2.902344 " clip-rule="nonzero"/></clipPath><clipPath id="91ee83778c"><path d="M 14.878906 2.902344 C 8.464844 2.902344 3.265625 8.101562 3.265625 14.515625 C 3.265625 20.929688 8.464844 26.128906 14.878906 26.128906 C 21.289062 26.128906 26.488281 20.929688 26.488281 14.515625 C 26.488281 8.101562 21.289062 2.902344 14.878906 2.902344 Z M 14.878906 2.902344 " clip-rule="nonzero"/></clipPath><clipPath id="5332925001"><path d="M 0.265625 0.902344 L 23.488281 0.902344 L 23.488281 24.128906 L 0.265625 24.128906 Z M 0.265625 0.902344 " clip-rule="nonzero"/></clipPath><clipPath id="8fb67e8a34"><path d="M 11.878906 0.902344 C 5.464844 0.902344 0.265625 6.101562 0.265625 12.515625 C 0.265625 18.929688 5.464844 24.128906 11.878906 24.128906 C 18.289062 24.128906 23.488281 18.929688 23.488281 12.515625 C 23.488281 6.101562 18.289062 0.902344 11.878906 0.902344 Z M 11.878906 0.902344 " clip-rule="nonzero"/></clipPath><clipPath id="614eec199c"><rect x="0" width="24" y="0" height="25"/></clipPath><clipPath id="36c25e05b3"><path d="M 0.257812 1 L 7 1 L 7 13 L 0.257812 13 Z M 0.257812 1 " clip-rule="nonzero"/></clipPath><clipPath id="16a85eb988"><rect x="0" width="8" y="0" height="17"/></clipPath><clipPath id="ad00053b57"><path d="M 0.0585938 2 L 19 2 L 19 17 L 0.0585938 17 Z M 0.0585938 2 " clip-rule="nonzero"/></clipPath><clipPath id="1e81f74962"><rect x="0" width="20" y="0" height="23"/></clipPath><clipPath id="c99e2c7164"><path d="M 4.925781 14.851562 L 25.074219 14.851562 L 25.074219 17.335938 L 4.925781 17.335938 Z M 4.925781 14.851562 " clip-rule="nonzero"/></clipPath><clipPath id="50aa3e2a43"><path d="M 0.925781 0.851562 L 21.074219 0.851562 L 21.074219 3.335938 L 0.925781 3.335938 Z M 0.925781 0.851562 " clip-rule="nonzero"/></clipPath><clipPath id="562aa7ce94"><rect x="0" width="22" y="0" height="4"/></clipPath><clipPath id="4ef9d75af5"><path d="M 0.378906 1 L 2 1 L 2 3 L 0.378906 3 Z M 0.378906 1 " clip-rule="nonzero"/></clipPath><clipPath id="a38ac4708e"><path d="M 8 1 L 10.367188 1 L 10.367188 3.652344 L 8 3.652344 Z M 8 1 " clip-rule="nonzero"/></clipPath><clipPath id="76fa84d85b"><rect x="0" width="11" y="0" height="4"/></clipPath><clipPath id="77ba157507"><path d="M 2.890625 2 L 26.84375 2 L 26.84375 26.0625 L 2.890625 26.0625 Z M 2.890625 2 " clip-rule="nonzero"/></clipPath><clipPath id="df891fb9d1"><path d="M 9 1.386719 L 14 1.386719 L 14 6 L 9 6 Z M 9 1.386719 " clip-rule="nonzero"/></clipPath></defs><g clip-path="url(#e00ecc7889)"><g clip-path="url(#91ee83778c)"><g transform="matrix(1, 0, 0, 1, 3, 2)"><g clip-path="url(#614eec199c)"><g clip-path="url(#5332925001)"><g clip-path="url(#8fb67e8a34)"><path fill="none" d="M 0.265625 0.902344 L 23.488281 0.902344 L 23.488281 24.128906 L 0.265625 24.128906 Z M 0.265625 0.902344 " fill-opacity="1" fill-rule="nonzero"/></g></g></g></g></g></g><g transform="matrix(1, 0, 0, 1, 13, 11)"><g clip-path="url(#16a85eb988)"><g clip-path="url(#36c25e05b3)"><g fill="#059669" fill-opacity="1"><g transform="translate(0.265378, 12.303708)"><g><path d="M 1.71875 -7.203125 L 1.71875 0 L 0.53125 0 L 0.53125 -10.796875 L 6.71875 -10.796875 L 6.71875 -9.578125 C 6.363281 -9.921875 6.019531 -10.171875 5.6875 -10.328125 C 5.351562 -10.484375 4.972656 -10.582031 4.546875 -10.625 C 4.117188 -10.664062 3.585938 -10.6875 2.953125 -10.6875 L 1.71875 -10.6875 L 1.71875 -8.21875 C 1.71875 -7.519531 1.835938 -6.988281 2.078125 -6.625 C 2.316406 -6.257812 2.671875 -6.007812 3.140625 -5.875 C 3.617188 -5.75 4.207031 -5.6875 4.90625 -5.6875 L 4.90625 -4.484375 C 4.675781 -4.734375 4.398438 -4.929688 4.078125 -5.078125 C 3.765625 -5.234375 3.445312 -5.390625 3.125 -5.546875 C 2.800781 -5.703125 2.507812 -5.90625 2.25 -6.15625 C 2 -6.40625 1.820312 -6.753906 1.71875 -7.203125 Z M 1.71875 -7.203125 "/></g></g></g></g></g></g><g transform="matrix(1, 0, 0, 1, 6, 5)"><g clip-path="url(#1e81f74962)"><g clip-path="url(#ad00053b57)"><g fill="#059669" fill-opacity="1"><g transform="translate(3.362536, 16.005988)"><g><path d="M 2.75 -1.328125 C 2.75 -1.054688 2.800781 -0.785156 2.90625 -0.515625 C 3.019531 -0.253906 3.222656 -0.0820312 3.515625 0 L 0.640625 0 C 0.953125 -0.0820312 1.160156 -0.253906 1.265625 -0.515625 C 1.378906 -0.785156 1.4375 -1.066406 1.4375 -1.359375 L 1.4375 -11.140625 C 1.050781 -11.160156 0.648438 -11.195312 0.234375 -11.25 C -0.171875 -11.3125 -0.566406 -11.40625 -0.953125 -11.53125 C -1.347656 -11.65625 -1.726562 -11.816406 -2.09375 -12.015625 C -2.457031 -12.210938 -2.78125 -12.445312 -3.0625 -12.71875 L -3 -12.921875 C -2.394531 -12.367188 -1.75 -11.984375 -1.0625 -11.765625 C -0.382812 -11.546875 0.351562 -11.4375 1.15625 -11.4375 C 1.894531 -11.4375 2.609375 -11.519531 3.296875 -11.6875 C 3.992188 -11.851562 4.695312 -12.046875 5.40625 -12.265625 L 6.578125 -12.640625 C 7.273438 -12.867188 7.972656 -13.066406 8.671875 -13.234375 C 9.378906 -13.398438 10.101562 -13.484375 10.84375 -13.484375 C 11.757812 -13.484375 12.597656 -13.332031 13.359375 -13.03125 C 14.128906 -12.738281 14.8125 -12.226562 15.40625 -11.5 L 15.21875 -11.40625 C 15 -11.726562 14.753906 -11.988281 14.484375 -12.1875 C 14.210938 -12.382812 13.914062 -12.535156 13.59375 -12.640625 C 13.269531 -12.753906 12.9375 -12.832031 12.59375 -12.875 C 12.257812 -12.914062 11.910156 -12.9375 11.546875 -12.9375 C 10.785156 -12.9375 10.039062 -12.851562 9.3125 -12.6875 C 8.582031 -12.519531 7.859375 -12.332031 7.140625 -12.125 C 6.421875 -11.925781 5.695312 -11.726562 4.96875 -11.53125 C 4.238281 -11.34375 3.5 -11.226562 2.75 -11.1875 Z M 2.75 -1.328125 "/></g></g></g></g></g></g><g clip-path="url(#c99e2c7164)"><g transform="matrix(1, 0, 0, 1, 4, 14)"><g clip-path="url(#562aa7ce94)"><g clip-path="url(#50aa3e2a43)"><path fill="none" d="M 0.925781 0.851562 L 21.074219 0.851562 L 21.074219 3.335938 L 0.925781 3.335938 Z M 0.925781 0.851562 " fill-opacity="1" fill-rule="nonzero"/></g></g></g></g><g transform="matrix(1, 0, 0, 1, 8, 14)"><g clip-path="url(#76fa84d85b)"><g clip-path="url(#4ef9d75af5)"><g fill="#059669" fill-opacity="1"><g transform="translate(0.616749, 2.724619)"><g><path d="M 0.640625 -0.15625 C 0.640625 -0.125 0.644531 -0.09375 0.65625 -0.0625 C 0.664062 -0.03125 0.691406 -0.0078125 0.734375 0 L 0.40625 0 C 0.445312 -0.0078125 0.472656 -0.03125 0.484375 -0.0625 C 0.492188 -0.09375 0.5 -0.125 0.5 -0.15625 L 0.5 -1.140625 L 0.390625 -1.140625 C 0.328125 -1.140625 0.265625 -1.125 0.203125 -1.09375 C 0.148438 -1.0625 0.113281 -1.019531 0.09375 -0.96875 L 0.125 -1.171875 L 1.015625 -1.171875 L 1.0625 -0.96875 C 1.03125 -1.019531 0.984375 -1.0625 0.921875 -1.09375 C 0.867188 -1.125 0.8125 -1.140625 0.75 -1.140625 L 0.640625 -1.140625 Z M 0.640625 -0.15625 "/></g></g></g></g><g fill="#059669" fill-opacity="1"><g transform="translate(1.75811, 2.724619)"><g><path d="M 0.25 -0.109375 C 0.25 -0.078125 0.253906 -0.0507812 0.265625 -0.03125 C 0.285156 -0.0195312 0.3125 -0.0078125 0.34375 0 L 0.09375 0 C 0.113281 -0.0078125 0.132812 -0.0234375 0.15625 -0.046875 C 0.1875 -0.078125 0.207031 -0.109375 0.21875 -0.140625 L 0.625 -1.1875 L 1.03125 -0.140625 C 1.050781 -0.109375 1.066406 -0.078125 1.078125 -0.046875 C 1.097656 -0.0234375 1.125 -0.0078125 1.15625 0 L 0.8125 0 C 0.832031 -0.0078125 0.847656 -0.0234375 0.859375 -0.046875 C 0.878906 -0.0664062 0.890625 -0.0859375 0.890625 -0.109375 C 0.890625 -0.117188 0.882812 -0.140625 0.875 -0.171875 C 0.863281 -0.203125 0.847656 -0.234375 0.828125 -0.265625 C 0.816406 -0.304688 0.800781 -0.34375 0.78125 -0.375 C 0.769531 -0.40625 0.765625 -0.429688 0.765625 -0.453125 L 0.375 -0.453125 C 0.363281 -0.429688 0.351562 -0.40625 0.34375 -0.375 C 0.332031 -0.34375 0.316406 -0.3125 0.296875 -0.28125 C 0.285156 -0.25 0.273438 -0.21875 0.265625 -0.1875 C 0.253906 -0.15625 0.25 -0.128906 0.25 -0.109375 Z M 0.375 -0.46875 L 0.75 -0.46875 L 0.5625 -0.96875 Z M 0.375 -0.46875 "/></g></g></g><g fill="#059669" fill-opacity="1"><g transform="translate(3.007146, 2.724619)"><g><path d="M 0.28125 -0.09375 C 0.28125 -0.0703125 0.285156 -0.0507812 0.296875 -0.03125 C 0.304688 -0.0195312 0.320312 -0.0078125 0.34375 0 L 0.09375 0 C 0.113281 0 0.128906 -0.00390625 0.140625 -0.015625 C 0.160156 -0.0351562 0.175781 -0.0507812 0.1875 -0.0625 C 0.195312 -0.0703125 0.207031 -0.0820312 0.21875 -0.09375 C 0.238281 -0.113281 0.253906 -0.128906 0.265625 -0.140625 L 0.546875 -0.5625 L 0.25 -1.015625 C 0.238281 -1.023438 0.222656 -1.035156 0.203125 -1.046875 C 0.191406 -1.066406 0.179688 -1.082031 0.171875 -1.09375 C 0.160156 -1.113281 0.144531 -1.128906 0.125 -1.140625 C 0.113281 -1.160156 0.0976562 -1.171875 0.078125 -1.171875 L 0.4375 -1.171875 C 0.414062 -1.171875 0.398438 -1.160156 0.390625 -1.140625 C 0.390625 -1.117188 0.390625 -1.101562 0.390625 -1.09375 C 0.390625 -1.070312 0.394531 -1.046875 0.40625 -1.015625 L 0.640625 -0.671875 L 0.84375 -1 C 0.863281 -1.03125 0.875 -1.054688 0.875 -1.078125 C 0.875 -1.097656 0.863281 -1.113281 0.84375 -1.125 C 0.832031 -1.144531 0.816406 -1.160156 0.796875 -1.171875 L 1.046875 -1.171875 C 1.015625 -1.160156 0.984375 -1.140625 0.953125 -1.109375 C 0.929688 -1.078125 0.910156 -1.050781 0.890625 -1.03125 L 0.640625 -0.65625 L 1 -0.125 C 1.007812 -0.101562 1.023438 -0.078125 1.046875 -0.046875 C 1.078125 -0.0234375 1.101562 -0.0078125 1.125 0 L 0.765625 0 C 0.785156 0 0.800781 -0.0078125 0.8125 -0.03125 C 0.820312 -0.0507812 0.828125 -0.0703125 0.828125 -0.09375 C 0.828125 -0.101562 0.820312 -0.113281 0.8125 -0.125 C 0.8125 -0.132812 0.804688 -0.148438 0.796875 -0.171875 L 0.546875 -0.53125 L 0.3125 -0.1875 C 0.300781 -0.175781 0.289062 -0.160156 0.28125 -0.140625 C 0.28125 -0.128906 0.28125 -0.113281 0.28125 -0.09375 Z M 0.28125 -0.09375 "/></g></g></g><g fill="#059669" fill-opacity="1"><g transform="translate(4.222683, 2.724619)"><g/></g></g><g fill="#059669" fill-opacity="1"><g transform="translate(4.806523, 2.724619)"><g><path d="M 0.3125 -0.15625 C 0.3125 -0.125 0.316406 -0.09375 0.328125 -0.0625 C 0.335938 -0.03125 0.363281 -0.0078125 0.40625 0 L 0.078125 0 C 0.117188 -0.0078125 0.144531 -0.03125 0.15625 -0.0625 C 0.164062 -0.09375 0.171875 -0.125 0.171875 -0.15625 L 0.171875 -1.03125 C 0.171875 -1.0625 0.164062 -1.085938 0.15625 -1.109375 C 0.144531 -1.140625 0.117188 -1.160156 0.078125 -1.171875 L 0.859375 -1.171875 L 0.90625 -0.953125 C 0.863281 -1.015625 0.8125 -1.0625 0.75 -1.09375 C 0.6875 -1.132812 0.617188 -1.15625 0.546875 -1.15625 L 0.3125 -1.15625 L 0.3125 -0.609375 L 0.46875 -0.609375 C 0.507812 -0.609375 0.546875 -0.617188 0.578125 -0.640625 C 0.617188 -0.660156 0.644531 -0.691406 0.65625 -0.734375 L 0.65625 -0.46875 C 0.644531 -0.507812 0.617188 -0.535156 0.578125 -0.546875 C 0.546875 -0.566406 0.507812 -0.578125 0.46875 -0.578125 L 0.3125 -0.578125 Z M 0.3125 -0.15625 "/></g></g></g><g fill="#059669" fill-opacity="1"><g transform="translate(5.792352, 2.724619)"><g><path d="M 0.578125 -0.015625 C 0.648438 -0.015625 0.710938 -0.0351562 0.765625 -0.078125 C 0.828125 -0.117188 0.875 -0.171875 0.90625 -0.234375 L 0.859375 0 L 0.078125 0 C 0.117188 -0.0078125 0.144531 -0.03125 0.15625 -0.0625 C 0.164062 -0.09375 0.171875 -0.125 0.171875 -0.15625 L 0.171875 -1.03125 C 0.171875 -1.0625 0.164062 -1.085938 0.15625 -1.109375 C 0.144531 -1.140625 0.117188 -1.160156 0.078125 -1.171875 L 0.40625 -1.171875 C 0.363281 -1.160156 0.335938 -1.140625 0.328125 -1.109375 C 0.316406 -1.085938 0.3125 -1.0625 0.3125 -1.03125 L 0.3125 -0.015625 Z M 0.578125 -0.015625 "/></g></g></g><g fill="#059669" fill-opacity="1"><g transform="translate(6.790145, 2.724619)"><g><path d="M 1.265625 -0.578125 C 1.265625 -0.503906 1.25 -0.429688 1.21875 -0.359375 C 1.1875 -0.285156 1.144531 -0.222656 1.09375 -0.171875 C 1.039062 -0.117188 0.976562 -0.078125 0.90625 -0.046875 C 0.832031 -0.015625 0.753906 0 0.671875 0 C 0.585938 0 0.507812 -0.015625 0.4375 -0.046875 C 0.375 -0.078125 0.3125 -0.117188 0.25 -0.171875 C 0.195312 -0.222656 0.15625 -0.285156 0.125 -0.359375 C 0.101562 -0.429688 0.09375 -0.503906 0.09375 -0.578125 C 0.09375 -0.660156 0.101562 -0.738281 0.125 -0.8125 C 0.15625 -0.882812 0.195312 -0.945312 0.25 -1 C 0.3125 -1.050781 0.375 -1.09375 0.4375 -1.125 C 0.507812 -1.15625 0.585938 -1.171875 0.671875 -1.171875 C 0.753906 -1.171875 0.832031 -1.15625 0.90625 -1.125 C 0.976562 -1.09375 1.039062 -1.050781 1.09375 -1 C 1.144531 -0.945312 1.1875 -0.882812 1.21875 -0.8125 C 1.25 -0.738281 1.265625 -0.660156 1.265625 -0.578125 Z M 0.25 -0.609375 C 0.25 -0.546875 0.257812 -0.476562 0.28125 -0.40625 C 0.300781 -0.34375 0.332031 -0.28125 0.375 -0.21875 C 0.414062 -0.15625 0.460938 -0.101562 0.515625 -0.0625 C 0.566406 -0.03125 0.628906 -0.015625 0.703125 -0.015625 C 0.773438 -0.015625 0.835938 -0.03125 0.890625 -0.0625 C 0.941406 -0.09375 0.984375 -0.132812 1.015625 -0.1875 C 1.046875 -0.25 1.066406 -0.3125 1.078125 -0.375 C 1.097656 -0.4375 1.109375 -0.5 1.109375 -0.5625 C 1.109375 -0.625 1.097656 -0.6875 1.078125 -0.75 C 1.054688 -0.820312 1.023438 -0.890625 0.984375 -0.953125 C 0.953125 -1.015625 0.90625 -1.0625 0.84375 -1.09375 C 0.789062 -1.132812 0.726562 -1.15625 0.65625 -1.15625 C 0.582031 -1.15625 0.519531 -1.132812 0.46875 -1.09375 C 0.425781 -1.0625 0.382812 -1.019531 0.34375 -0.96875 C 0.3125 -0.914062 0.285156 -0.859375 0.265625 -0.796875 C 0.253906 -0.734375 0.25 -0.671875 0.25 -0.609375 Z M 0.25 -0.609375 "/></g></g></g><g clip-path="url(#a38ac4708e)"><g fill="#059669" fill-opacity="1"><g transform="translate(8.142071, 2.724619)"><g><path d="M 1.234375 -0.203125 C 1.265625 -0.109375 1.296875 -0.015625 1.328125 0.078125 C 1.367188 0.171875 1.414062 0.253906 1.46875 0.328125 C 1.519531 0.398438 1.582031 0.457031 1.65625 0.5 C 1.738281 0.550781 1.835938 0.582031 1.953125 0.59375 L 1.953125 0.609375 C 1.828125 0.609375 1.71875 0.582031 1.625 0.53125 C 1.53125 0.488281 1.445312 0.425781 1.375 0.34375 C 1.3125 0.257812 1.253906 0.164062 1.203125 0.0625 C 1.148438 -0.0390625 1.101562 -0.144531 1.0625 -0.25 C 1.03125 -0.351562 0.992188 -0.457031 0.953125 -0.5625 C 0.921875 -0.675781 0.890625 -0.78125 0.859375 -0.875 L 0.59375 0 L 0.21875 -1.015625 C 0.207031 -1.046875 0.191406 -1.070312 0.171875 -1.09375 C 0.160156 -1.125 0.140625 -1.148438 0.109375 -1.171875 L 0.4375 -1.171875 C 0.414062 -1.160156 0.398438 -1.144531 0.390625 -1.125 C 0.378906 -1.101562 0.375 -1.082031 0.375 -1.0625 C 0.375 -1.050781 0.378906 -1.023438 0.390625 -0.984375 C 0.398438 -0.953125 0.414062 -0.90625 0.4375 -0.84375 C 0.457031 -0.789062 0.476562 -0.734375 0.5 -0.671875 C 0.519531 -0.609375 0.539062 -0.550781 0.5625 -0.5 C 0.582031 -0.445312 0.597656 -0.394531 0.609375 -0.34375 C 0.628906 -0.300781 0.640625 -0.269531 0.640625 -0.25 L 0.84375 -0.890625 C 0.8125 -0.972656 0.773438 -1.050781 0.734375 -1.125 C 0.691406 -1.195312 0.640625 -1.257812 0.578125 -1.3125 C 0.523438 -1.375 0.460938 -1.421875 0.390625 -1.453125 C 0.316406 -1.484375 0.226562 -1.5 0.125 -1.5 C 0.113281 -1.5 0.0976562 -1.5 0.078125 -1.5 C 0.0664062 -1.5 0.0546875 -1.5 0.046875 -1.5 L 0.046875 -1.515625 C 0.0546875 -1.515625 0.0664062 -1.515625 0.078125 -1.515625 C 0.0976562 -1.515625 0.113281 -1.515625 0.125 -1.515625 C 0.25 -1.515625 0.359375 -1.492188 0.453125 -1.453125 C 0.546875 -1.421875 0.628906 -1.375 0.703125 -1.3125 C 0.773438 -1.25 0.835938 -1.175781 0.890625 -1.09375 C 0.941406 -1.007812 0.988281 -0.921875 1.03125 -0.828125 C 1.070312 -0.734375 1.109375 -0.632812 1.140625 -0.53125 C 1.171875 -0.4375 1.203125 -0.335938 1.234375 -0.234375 C 1.234375 -0.253906 1.238281 -0.285156 1.25 -0.328125 C 1.269531 -0.378906 1.289062 -0.429688 1.3125 -0.484375 C 1.332031 -0.546875 1.351562 -0.609375 1.375 -0.671875 C 1.394531 -0.734375 1.410156 -0.789062 1.421875 -0.84375 C 1.441406 -0.90625 1.457031 -0.953125 1.46875 -0.984375 C 1.476562 -1.023438 1.484375 -1.050781 1.484375 -1.0625 C 1.484375 -1.09375 1.472656 -1.113281 1.453125 -1.125 C 1.441406 -1.144531 1.425781 -1.160156 1.40625 -1.171875 L 1.65625 -1.171875 C 1.625 -1.160156 1.59375 -1.140625 1.5625 -1.109375 C 1.53125 -1.085938 1.507812 -1.0625 1.5 -1.03125 Z M 1.234375 -0.203125 "/></g></g></g></g></g></g><g clip-path="url(#77ba157507)"><path fill="#059669" d="M 15.984375 2.972656 L 16.746094 3.078125 C 17.050781 3.121094 17.351562 3.179688 17.648438 3.261719 C 17.824219 3.308594 18.019531 3.335938 18.21875 3.40625 L 18.847656 3.621094 C 19.917969 4.011719 20.90625 4.542969 21.816406 5.222656 C 23.003906 6.109375 23.984375 7.191406 24.75 8.460938 C 25.667969 9.976562 26.214844 11.613281 26.386719 13.375 C 26.398438 13.605469 26.414062 13.839844 26.425781 14.074219 C 26.425781 14.191406 26.445312 14.304688 26.441406 14.433594 L 26.425781 14.789062 C 26.414062 15.023438 26.40625 15.257812 26.394531 15.496094 C 26.386719 15.734375 26.332031 15.980469 26.296875 16.222656 C 26.25 16.714844 26.105469 17.1875 25.988281 17.671875 C 25.960938 17.796875 25.921875 17.914062 25.875 18.03125 L 25.75 18.386719 L 25.621094 18.742188 L 25.554688 18.921875 L 25.476562 19.09375 C 25.367188 19.324219 25.257812 19.550781 25.148438 19.78125 C 25.09375 19.898438 25.035156 20.015625 24.964844 20.125 L 24.765625 20.457031 C 24.519531 20.914062 24.1875 21.316406 23.882812 21.742188 C 23.71875 21.945312 23.539062 22.136719 23.359375 22.335938 L 23.097656 22.628906 L 22.804688 22.894531 C 22.609375 23.074219 22.417969 23.261719 22.214844 23.429688 L 21.574219 23.925781 C 20.695312 24.535156 19.746094 25.082031 18.714844 25.425781 L 18.332031 25.570312 L 17.9375 25.675781 C 17.675781 25.742188 17.410156 25.820312 17.144531 25.878906 C 16.605469 25.957031 16.070312 26.082031 15.523438 26.089844 L 15.109375 26.113281 L 14.90625 26.125 L 14.691406 26.125 L 13.890625 26.089844 C 13.617188 26.074219 13.34375 26.046875 13.074219 26 L 12.667969 25.933594 L 12.460938 25.902344 L 12.261719 25.851562 L 11.460938 25.65625 C 11.199219 25.589844 10.945312 25.480469 10.6875 25.394531 L 10.304688 25.253906 C 10.179688 25.207031 10.058594 25.140625 9.933594 25.085938 L 9.199219 24.746094 C 8.742188 24.460938 8.257812 24.214844 7.835938 23.878906 L 7.519531 23.632812 C 7.410156 23.558594 7.304688 23.472656 7.207031 23.382812 L 6.605469 22.851562 C 5.855469 22.101562 5.160156 21.296875 4.648438 20.398438 L 4.445312 20.066406 C 4.378906 19.953125 4.328125 19.839844 4.269531 19.722656 L 3.929688 19.039062 C 3.832031 18.804688 3.75 18.5625 3.660156 18.328125 L 3.53125 17.976562 C 3.484375 17.859375 3.460938 17.734375 3.425781 17.613281 C 3.363281 17.375 3.296875 17.132812 3.234375 16.894531 C 3.171875 16.65625 3.148438 16.410156 3.105469 16.167969 L 3.046875 15.808594 C 3.023438 15.691406 3.011719 15.570312 3.003906 15.449219 C 2.992188 15.207031 2.976562 14.96875 2.960938 14.730469 C 2.957031 14.605469 2.949219 14.480469 2.941406 14.359375 C 2.9375 14.234375 2.949219 14.128906 2.957031 14.015625 C 2.964844 13.785156 2.972656 13.5625 2.976562 13.339844 C 3.007812 13.105469 3.035156 12.875 3.0625 12.644531 C 3.078125 12.53125 3.09375 12.414062 3.105469 12.300781 C 3.121094 12.1875 3.152344 12.078125 3.175781 11.96875 L 3.316406 11.316406 C 3.375 11.105469 3.441406 10.894531 3.503906 10.6875 C 3.632812 10.28125 3.78125 9.882812 3.949219 9.492188 C 4.574219 8.082031 5.433594 6.84375 6.535156 5.769531 C 7.378906 4.941406 8.324219 4.25 9.367188 3.695312 C 10.046875 3.351562 10.746094 3.066406 11.472656 2.84375 L 12.25 2.632812 L 12.492188 3.730469 L 11.785156 3.914062 C 11.121094 4.101562 10.480469 4.351562 9.859375 4.652344 C 8.898438 5.144531 8.027344 5.761719 7.242188 6.503906 C 6.214844 7.472656 5.40625 8.597656 4.816406 9.878906 C 4.652344 10.238281 4.511719 10.601562 4.386719 10.972656 C 4.328125 11.164062 4.261719 11.355469 4.203125 11.546875 C 4.144531 11.734375 4.113281 11.945312 4.066406 12.144531 C 4.042969 12.25 4.019531 12.347656 3.996094 12.449219 C 3.972656 12.550781 3.972656 12.660156 3.953125 12.761719 C 3.921875 12.964844 3.894531 13.171875 3.863281 13.378906 C 3.851562 13.601562 3.839844 13.828125 3.828125 14.054688 C 3.828125 14.167969 3.816406 14.28125 3.8125 14.398438 L 3.824219 14.707031 C 3.835938 14.929688 3.84375 15.152344 3.855469 15.375 C 3.855469 15.488281 3.867188 15.597656 3.886719 15.707031 L 3.9375 16.046875 C 3.976562 16.273438 3.988281 16.503906 4.050781 16.71875 C 4.113281 16.9375 4.164062 17.167969 4.21875 17.394531 C 4.25 17.507812 4.269531 17.621094 4.308594 17.734375 L 4.421875 18.066406 C 4.503906 18.289062 4.578125 18.511719 4.664062 18.734375 C 4.753906 18.953125 4.867188 19.164062 4.96875 19.378906 C 5.023438 19.488281 5.070312 19.601562 5.128906 19.703125 L 5.3125 20.015625 C 5.777344 20.867188 6.417969 21.628906 7.109375 22.34375 L 7.660156 22.855469 C 7.753906 22.941406 7.847656 23.019531 7.953125 23.09375 L 8.253906 23.324219 C 8.640625 23.648438 9.09375 23.886719 9.523438 24.160156 L 10.210938 24.503906 C 10.324219 24.558594 10.4375 24.621094 10.554688 24.671875 L 10.914062 24.804688 C 11.15625 24.890625 11.390625 25 11.640625 25.066406 L 12.390625 25.265625 L 12.578125 25.316406 L 12.765625 25.347656 L 13.144531 25.40625 C 13.398438 25.457031 13.65625 25.492188 13.917969 25.507812 L 14.71875 25.554688 L 14.84375 25.554688 C 14.851562 25.554688 14.832031 25.554688 14.851562 25.554688 L 14.898438 25.554688 L 15.097656 25.546875 L 15.484375 25.53125 C 16.011719 25.53125 16.515625 25.421875 17.039062 25.359375 C 17.292969 25.304688 17.542969 25.234375 17.796875 25.175781 L 18.175781 25.078125 L 18.542969 24.949219 C 19.539062 24.636719 20.453125 24.125 21.308594 23.554688 L 21.929688 23.097656 C 22.128906 22.933594 22.316406 22.753906 22.503906 22.589844 L 22.789062 22.332031 L 23.046875 22.050781 C 23.21875 21.863281 23.398438 21.683594 23.558594 21.488281 C 23.859375 21.082031 24.1875 20.699219 24.433594 20.261719 L 24.628906 19.941406 C 24.699219 19.839844 24.761719 19.730469 24.8125 19.617188 L 25.140625 18.953125 L 25.222656 18.785156 L 25.289062 18.613281 L 25.546875 17.925781 C 25.59375 17.816406 25.632812 17.703125 25.660156 17.582031 C 25.777344 17.113281 25.929688 16.652344 25.984375 16.183594 C 26.019531 15.957031 26.066406 15.722656 26.089844 15.488281 C 26.117188 15.253906 26.117188 15.011719 26.132812 14.777344 L 26.152344 14.425781 C 26.152344 14.324219 26.144531 14.199219 26.144531 14.082031 C 26.132812 13.855469 26.125 13.625 26.117188 13.398438 C 25.976562 11.664062 25.46875 10.050781 24.597656 8.546875 C 23.859375 7.28125 22.910156 6.199219 21.75 5.300781 C 20.851562 4.613281 19.878906 4.070312 18.828125 3.664062 L 18.203125 3.445312 C 18.007812 3.371094 17.816406 3.339844 17.640625 3.292969 C 17.347656 3.207031 17.046875 3.140625 16.742188 3.09375 Z M 15.984375 2.972656 " fill-opacity="1" fill-rule="nonzero"/></g><g clip-path="url(#df891fb9d1)"><path fill="#059669" d="M 10.449219 5.496094 L 12.039062 3.253906 L 9.796875 1.664062 L 11.421875 1.386719 L 13.664062 2.976562 L 12.078125 5.214844 Z M 10.449219 5.496094 " fill-opacity="1" fill-rule="nonzero"/></g></svg>