<svg xmlns="http://www.w3.org/2000/svg" xmlns:xlink="http://www.w3.org/1999/xlink" width="512" zoomAndPan="magnify" viewBox="0 0 384 383.999986" height="512" preserveAspectRatio="xMidYMid meet" version="1.0"><defs><g/><clipPath id="ede51d98af"><path d="M 36.777344 38.398438 L 343.976562 38.398438 L 343.976562 345.601562 L 36.777344 345.601562 Z M 36.777344 38.398438 " clip-rule="nonzero"/></clipPath><clipPath id="20cf3ef6ef"><path d="M 190.378906 38.398438 C 105.546875 38.398438 36.777344 107.167969 36.777344 192 C 36.777344 276.832031 105.546875 345.601562 190.378906 345.601562 C 275.207031 345.601562 343.976562 276.832031 343.976562 192 C 343.976562 107.167969 275.207031 38.398438 190.378906 38.398438 Z M 190.378906 38.398438 " clip-rule="nonzero"/></clipPath><clipPath id="5c730df5df"><path d="M 0.777344 0.398438 L 307.976562 0.398438 L 307.976562 307.601562 L 0.777344 307.601562 Z M 0.777344 0.398438 " clip-rule="nonzero"/></clipPath><clipPath id="a10198f46d"><path d="M 154.378906 0.398438 C 69.546875 0.398438 0.777344 69.167969 0.777344 154 C 0.777344 238.832031 69.546875 307.601562 154.378906 307.601562 C 239.207031 307.601562 307.976562 238.832031 307.976562 154 C 307.976562 69.167969 239.207031 0.398438 154.378906 0.398438 Z M 154.378906 0.398438 " clip-rule="nonzero"/></clipPath><clipPath id="76be78dc08"><rect x="0" width="308" y="0" height="308"/></clipPath><clipPath id="883ff1ae72"><rect x="0" width="98" y="0" height="204"/></clipPath><clipPath id="8b659acee9"><rect x="0" width="252" y="0" height="289"/></clipPath><clipPath id="35310cda97"><path d="M 58.757812 196.441406 L 325.242188 196.441406 L 325.242188 229.316406 L 58.757812 229.316406 Z M 58.757812 196.441406 " clip-rule="nonzero"/></clipPath><clipPath id="665b9e80a9"><path d="M 0.757812 0.441406 L 267.242188 0.441406 L 267.242188 33.316406 L 0.757812 33.316406 Z M 0.757812 0.441406 " clip-rule="nonzero"/></clipPath><clipPath id="dceff30014"><rect x="0" width="268" y="0" height="34"/></clipPath><clipPath id="5e8cb53cf2"><rect x="0" width="127" y="0" height="34"/></clipPath><clipPath id="c098bd251b"><path d="M 32 34 L 343.851562 34 L 343.851562 345.339844 L 32 345.339844 Z M 32 34 " clip-rule="nonzero"/></clipPath><clipPath id="e19d44abf6"><path d="M 123 18.339844 L 175 18.339844 L 175 73 L 123 73 Z M 123 18.339844 " clip-rule="nonzero"/></clipPath></defs><rect x="-38.4" width="460.8" fill="#ffffff" y="-38.399999" height="460.799983" fill-opacity="1"/><rect x="-38.4" width="460.8" fill="#ffffff" y="-38.399999" height="460.799983" fill-opacity="1"/><g clip-path="url(#ede51d98af)"><g clip-path="url(#20cf3ef6ef)"><g transform="matrix(1, 0, 0, 1, 36, 38)"><g clip-path="url(#76be78dc08)"><g clip-path="url(#5c730df5df)"><g clip-path="url(#a10198f46d)"><path fill="#ffffff" d="M 0.777344 0.398438 L 307.976562 0.398438 L 307.976562 307.601562 L 0.777344 307.601562 Z M 0.777344 0.398438 " fill-opacity="1" fill-rule="nonzero"/></g></g></g></g></g></g><g transform="matrix(1, 0, 0, 1, 168, 156)"><g clip-path="url(#883ff1ae72)"><g fill="#059669" fill-opacity="1"><g transform="translate(1.056732, 152.230314)"><g><path d="M 22.65625 -95.25 L 22.65625 0 L 7.078125 0 L 7.078125 -142.78125 L 88.78125 -142.78125 L 88.78125 -126.59375 C 84.0625 -131.175781 79.507812 -134.515625 75.125 -136.609375 C 70.75 -138.703125 65.726562 -140.015625 60.0625 -140.546875 C 54.394531 -141.085938 47.382812 -141.359375 39.03125 -141.359375 L 22.65625 -141.359375 L 22.65625 -108.59375 C 22.65625 -99.425781 24.238281 -92.414062 27.40625 -87.5625 C 30.570312 -82.707031 35.289062 -79.4375 41.5625 -77.75 C 47.832031 -76.070312 55.617188 -75.234375 64.921875 -75.234375 L 64.921875 -59.25 C 61.816406 -62.625 58.175781 -65.285156 54 -67.234375 C 49.820312 -69.191406 45.609375 -71.210938 41.359375 -73.296875 C 37.109375 -75.390625 33.296875 -78.085938 29.921875 -81.390625 C 26.554688 -84.703125 24.132812 -89.320312 22.65625 -95.25 Z M 22.65625 -95.25 "/></g></g></g></g></g><g transform="matrix(1, 0, 0, 1, 73, 78)"><g clip-path="url(#8b659acee9)"><g fill="#059669" fill-opacity="1"><g transform="translate(44.435153, 199.839156)"><g><path d="M 36.421875 -17.625 C 36.421875 -13.96875 37.140625 -10.40625 38.578125 -6.9375 C 40.023438 -3.46875 42.675781 -1.15625 46.53125 0 L 8.375 0 C 12.613281 -1.15625 15.457031 -3.46875 16.90625 -6.9375 C 18.351562 -10.40625 19.078125 -14.066406 19.078125 -17.921875 L 19.078125 -147.40625 C 13.867188 -147.601562 8.566406 -148.085938 3.171875 -148.859375 C -2.210938 -149.628906 -7.503906 -150.832031 -12.703125 -152.46875 C -17.910156 -154.101562 -22.921875 -156.222656 -27.734375 -158.828125 C -32.554688 -161.429688 -36.800781 -164.5625 -40.46875 -168.21875 L -39.59375 -170.828125 C -31.695312 -163.503906 -23.21875 -158.394531 -14.15625 -155.5 C -5.101562 -152.613281 4.71875 -151.171875 15.3125 -151.171875 C 25.144531 -151.171875 34.632812 -152.273438 43.78125 -154.484375 C 52.9375 -156.703125 62.140625 -159.257812 71.390625 -162.15625 L 87 -167.0625 C 96.25 -170.144531 105.5 -172.796875 114.75 -175.015625 C 124 -177.234375 133.539062 -178.34375 143.375 -178.34375 C 155.507812 -178.34375 166.632812 -176.363281 176.75 -172.40625 C 186.863281 -168.457031 195.875 -161.664062 203.78125 -152.03125 L 201.171875 -150.875 C 198.285156 -155.113281 195.054688 -158.535156 191.484375 -161.140625 C 187.921875 -163.742188 184.019531 -165.765625 179.78125 -167.203125 C 175.539062 -168.648438 171.15625 -169.660156 166.625 -170.234375 C 162.101562 -170.816406 157.429688 -171.109375 152.609375 -171.109375 C 142.597656 -171.109375 132.773438 -170 123.140625 -167.78125 C 113.503906 -165.570312 103.914062 -163.117188 94.375 -160.421875 C 84.832031 -157.722656 75.242188 -155.117188 65.609375 -152.609375 C 55.972656 -150.109375 46.242188 -148.566406 36.421875 -147.984375 Z M 36.421875 -17.625 "/></g></g></g></g></g><g clip-path="url(#35310cda97)"><g transform="matrix(1, 0, 0, 1, 58, 196)"><g clip-path="url(#dceff30014)"><g clip-path="url(#665b9e80a9)"><path fill="#ffffff" d="M 0.757812 0.441406 L 267.234375 0.441406 L 267.234375 33.316406 L 0.757812 33.316406 Z M 0.757812 0.441406 " fill-opacity="1" fill-rule="nonzero"/></g></g></g></g><g transform="matrix(1, 0, 0, 1, 107, 198)"><g clip-path="url(#5e8cb53cf2)"><g fill="#059669" fill-opacity="1"><g transform="translate(0.570875, 23.210937)"><g><path d="M 8.515625 -2.03125 C 8.515625 -1.601562 8.585938 -1.191406 8.734375 -0.796875 C 8.878906 -0.410156 9.1875 -0.144531 9.65625 0 L 5.4375 0 C 5.925781 -0.144531 6.238281 -0.40625 6.375 -0.78125 C 6.507812 -1.164062 6.578125 -1.582031 6.578125 -2.03125 L 6.609375 -15.15625 L 5.125 -15.15625 C 4.28125 -15.15625 3.503906 -14.929688 2.796875 -14.484375 C 2.085938 -14.046875 1.535156 -13.457031 1.140625 -12.71875 L 1.671875 -15.515625 L 13.421875 -15.515625 L 13.984375 -12.75 C 13.585938 -13.445312 13.03125 -14.019531 12.3125 -14.46875 C 11.59375 -14.925781 10.820312 -15.15625 10 -15.15625 L 8.515625 -15.15625 Z M 8.515625 -2.03125 "/></g></g></g><g fill="#059669" fill-opacity="1"><g transform="translate(15.667269, 23.210937)"><g><path d="M 3.296875 -1.453125 C 3.296875 -1.054688 3.410156 -0.738281 3.640625 -0.5 C 3.867188 -0.269531 4.164062 -0.101562 4.53125 0 L 1.140625 0 C 1.515625 -0.125 1.867188 -0.351562 2.203125 -0.6875 C 2.546875 -1.03125 2.789062 -1.398438 2.9375 -1.796875 L 8.328125 -15.703125 L 13.734375 -1.796875 C 13.898438 -1.421875 14.113281 -1.054688 14.375 -0.703125 C 14.644531 -0.359375 14.984375 -0.125 15.390625 0 L 10.828125 0 C 11.097656 -0.0820312 11.320312 -0.265625 11.5 -0.546875 C 11.6875 -0.835938 11.78125 -1.109375 11.78125 -1.359375 C 11.78125 -1.523438 11.703125 -1.816406 11.546875 -2.234375 C 11.398438 -2.660156 11.234375 -3.117188 11.046875 -3.609375 C 10.859375 -4.097656 10.671875 -4.5625 10.484375 -5 C 10.304688 -5.445312 10.175781 -5.773438 10.09375 -5.984375 L 4.875 -5.984375 C 4.789062 -5.773438 4.660156 -5.460938 4.484375 -5.046875 C 4.316406 -4.640625 4.144531 -4.207031 3.96875 -3.75 C 3.789062 -3.300781 3.632812 -2.863281 3.5 -2.4375 C 3.363281 -2.007812 3.296875 -1.679688 3.296875 -1.453125 Z M 4.9375 -6.234375 L 9.96875 -6.234375 L 7.46875 -12.75 Z M 4.9375 -6.234375 "/></g></g></g><g fill="#059669" fill-opacity="1"><g transform="translate(32.187852, 23.210937)"><g><path d="M 3.671875 -1.296875 C 3.671875 -1.003906 3.757812 -0.734375 3.9375 -0.484375 C 4.113281 -0.242188 4.34375 -0.0820312 4.625 0 L 1.328125 0 C 1.492188 -0.0390625 1.675781 -0.140625 1.875 -0.296875 C 2.082031 -0.453125 2.28125 -0.625 2.46875 -0.8125 C 2.65625 -1.007812 2.832031 -1.207031 3 -1.40625 C 3.175781 -1.601562 3.316406 -1.78125 3.421875 -1.9375 L 7.15625 -7.40625 L 3.234375 -13.421875 C 3.128906 -13.585938 2.988281 -13.78125 2.8125 -14 C 2.644531 -14.226562 2.46875 -14.441406 2.28125 -14.640625 C 2.09375 -14.835938 1.894531 -15.015625 1.6875 -15.171875 C 1.488281 -15.335938 1.296875 -15.453125 1.109375 -15.515625 L 5.796875 -15.515625 C 5.554688 -15.453125 5.382812 -15.3125 5.28125 -15.09375 C 5.175781 -14.882812 5.125 -14.675781 5.125 -14.46875 C 5.125 -14.175781 5.226562 -13.847656 5.4375 -13.484375 L 8.390625 -8.984375 L 11.265625 -13.234375 C 11.523438 -13.585938 11.65625 -13.9375 11.65625 -14.28125 C 11.65625 -14.570312 11.550781 -14.820312 11.34375 -15.03125 C 11.144531 -15.25 10.910156 -15.410156 10.640625 -15.515625 L 13.921875 -15.515625 C 13.523438 -15.390625 13.140625 -15.117188 12.765625 -14.703125 C 12.398438 -14.296875 12.101562 -13.921875 11.875 -13.578125 L 8.546875 -8.765625 L 13.203125 -1.671875 C 13.410156 -1.335938 13.660156 -1 13.953125 -0.65625 C 14.253906 -0.320312 14.59375 -0.101562 14.96875 0 L 10.15625 0 C 10.394531 -0.0625 10.578125 -0.207031 10.703125 -0.4375 C 10.828125 -0.675781 10.890625 -0.910156 10.890625 -1.140625 C 10.890625 -1.328125 10.859375 -1.503906 10.796875 -1.671875 C 10.734375 -1.847656 10.648438 -2.019531 10.546875 -2.1875 L 7.34375 -7.125 L 4.109375 -2.46875 C 3.984375 -2.300781 3.878906 -2.113281 3.796875 -1.90625 C 3.710938 -1.707031 3.671875 -1.503906 3.671875 -1.296875 Z M 3.671875 -1.296875 "/></g></g></g><g fill="#059669" fill-opacity="1"><g transform="translate(48.265351, 23.210937)"><g/></g></g><g fill="#059669" fill-opacity="1"><g transform="translate(55.987616, 23.210937)"><g><path d="M 4.171875 -2.03125 C 4.171875 -1.601562 4.242188 -1.191406 4.390625 -0.796875 C 4.546875 -0.410156 4.84375 -0.144531 5.28125 0 L 1.109375 0 C 1.566406 -0.144531 1.867188 -0.410156 2.015625 -0.796875 C 2.171875 -1.191406 2.25 -1.601562 2.25 -2.03125 L 2.25 -13.578125 C 2.25 -14.003906 2.171875 -14.394531 2.015625 -14.75 C 1.867188 -15.113281 1.566406 -15.367188 1.109375 -15.515625 L 11.296875 -15.515625 L 11.9375 -12.53125 C 11.445312 -13.457031 10.796875 -14.144531 9.984375 -14.59375 C 9.171875 -15.039062 8.25 -15.265625 7.21875 -15.265625 L 4.171875 -15.265625 L 4.171875 -8.015625 L 6.140625 -8.015625 C 6.691406 -8.015625 7.210938 -8.148438 7.703125 -8.421875 C 8.203125 -8.691406 8.535156 -9.101562 8.703125 -9.65625 L 8.703125 -6.171875 C 8.535156 -6.722656 8.203125 -7.125 7.703125 -7.375 C 7.210938 -7.625 6.691406 -7.75 6.140625 -7.75 L 4.171875 -7.75 Z M 4.171875 -2.03125 "/></g></g></g><g fill="#059669" fill-opacity="1"><g transform="translate(69.026843, 23.210937)"><g><path d="M 7.5625 -0.25 C 8.625 -0.25 9.507812 -0.519531 10.21875 -1.0625 C 10.9375 -1.601562 11.5625 -2.304688 12.09375 -3.171875 L 11.390625 0 L 1.109375 0 C 1.566406 -0.144531 1.867188 -0.410156 2.015625 -0.796875 C 2.171875 -1.191406 2.25 -1.601562 2.25 -2.03125 L 2.25 -13.578125 C 2.25 -14.003906 2.171875 -14.394531 2.015625 -14.75 C 1.867188 -15.113281 1.566406 -15.367188 1.109375 -15.515625 L 5.28125 -15.515625 C 4.84375 -15.367188 4.546875 -15.113281 4.390625 -14.75 C 4.242188 -14.394531 4.171875 -14.003906 4.171875 -13.578125 L 4.171875 -0.25 Z M 7.5625 -0.25 "/></g></g></g><g fill="#059669" fill-opacity="1"><g transform="translate(82.22432, 23.210937)"><g><path d="M 16.78125 -7.75 C 16.78125 -6.675781 16.570312 -5.664062 16.15625 -4.71875 C 15.75 -3.769531 15.191406 -2.941406 14.484375 -2.234375 C 13.773438 -1.523438 12.945312 -0.960938 12 -0.546875 C 11.050781 -0.140625 10.035156 0.0625 8.953125 0.0625 C 7.878906 0.0625 6.867188 -0.140625 5.921875 -0.546875 C 4.972656 -0.960938 4.144531 -1.523438 3.4375 -2.234375 C 2.726562 -2.941406 2.164062 -3.769531 1.75 -4.71875 C 1.34375 -5.664062 1.140625 -6.675781 1.140625 -7.75 C 1.140625 -8.832031 1.34375 -9.847656 1.75 -10.796875 C 2.164062 -11.742188 2.726562 -12.570312 3.4375 -13.28125 C 4.144531 -13.988281 4.972656 -14.546875 5.921875 -14.953125 C 6.867188 -15.367188 7.878906 -15.578125 8.953125 -15.578125 C 10.035156 -15.578125 11.050781 -15.367188 12 -14.953125 C 12.945312 -14.546875 13.773438 -13.988281 14.484375 -13.28125 C 15.191406 -12.570312 15.75 -11.742188 16.15625 -10.796875 C 16.570312 -9.847656 16.78125 -8.832031 16.78125 -7.75 Z M 3.328125 -8.140625 C 3.328125 -7.316406 3.460938 -6.429688 3.734375 -5.484375 C 4.003906 -4.546875 4.398438 -3.679688 4.921875 -2.890625 C 5.441406 -2.097656 6.078125 -1.441406 6.828125 -0.921875 C 7.578125 -0.410156 8.425781 -0.15625 9.375 -0.15625 C 10.257812 -0.15625 11.035156 -0.382812 11.703125 -0.84375 C 12.378906 -1.3125 12.941406 -1.90625 13.390625 -2.625 C 13.835938 -3.34375 14.171875 -4.125 14.390625 -4.96875 C 14.609375 -5.8125 14.71875 -6.613281 14.71875 -7.375 C 14.71875 -8.238281 14.582031 -9.132812 14.3125 -10.0625 C 14.050781 -10.988281 13.65625 -11.84375 13.125 -12.625 C 12.601562 -13.40625 11.96875 -14.050781 11.21875 -14.5625 C 10.46875 -15.070312 9.597656 -15.328125 8.609375 -15.328125 C 7.722656 -15.328125 6.953125 -15.09375 6.296875 -14.625 C 5.640625 -14.15625 5.085938 -13.5625 4.640625 -12.84375 C 4.203125 -12.132812 3.875 -11.363281 3.65625 -10.53125 C 3.4375 -9.695312 3.328125 -8.898438 3.328125 -8.140625 Z M 3.328125 -8.140625 "/></g></g></g><g fill="#059669" fill-opacity="1"><g transform="translate(100.105789, 23.210937)"><g><path d="M 16.421875 -2.65625 C 16.847656 -1.457031 17.285156 -0.25 17.734375 0.96875 C 18.191406 2.195312 18.757812 3.304688 19.4375 4.296875 C 20.113281 5.296875 20.957031 6.113281 21.96875 6.75 C 22.976562 7.394531 24.253906 7.738281 25.796875 7.78125 L 25.796875 8.109375 C 24.171875 8.085938 22.742188 7.75 21.515625 7.09375 C 20.296875 6.4375 19.234375 5.578125 18.328125 4.515625 C 17.421875 3.460938 16.632812 2.253906 15.96875 0.890625 C 15.300781 -0.460938 14.707031 -1.859375 14.1875 -3.296875 C 13.675781 -4.742188 13.195312 -6.179688 12.75 -7.609375 C 12.3125 -9.035156 11.859375 -10.335938 11.390625 -11.515625 L 7.78125 -0.03125 L 2.96875 -13.484375 C 2.820312 -13.890625 2.625 -14.273438 2.375 -14.640625 C 2.125 -15.003906 1.804688 -15.296875 1.421875 -15.515625 L 5.859375 -15.515625 C 5.535156 -15.410156 5.300781 -15.21875 5.15625 -14.9375 C 5.007812 -14.664062 4.9375 -14.382812 4.9375 -14.09375 C 4.9375 -13.9375 5.015625 -13.597656 5.171875 -13.078125 C 5.328125 -12.566406 5.519531 -11.957031 5.75 -11.25 C 5.988281 -10.539062 6.25 -9.78125 6.53125 -8.96875 C 6.820312 -8.15625 7.101562 -7.375 7.375 -6.625 C 7.644531 -5.882812 7.890625 -5.21875 8.109375 -4.625 C 8.335938 -4.03125 8.492188 -3.609375 8.578125 -3.359375 L 11.265625 -11.875 C 10.804688 -12.925781 10.285156 -13.9375 9.703125 -14.90625 C 9.117188 -15.875 8.445312 -16.726562 7.6875 -17.46875 C 6.925781 -18.207031 6.0625 -18.800781 5.09375 -19.25 C 4.125 -19.707031 3.003906 -19.9375 1.734375 -19.9375 C 1.546875 -19.9375 1.359375 -19.9375 1.171875 -19.9375 C 0.984375 -19.9375 0.804688 -19.925781 0.640625 -19.90625 L 0.59375 -20.109375 C 0.769531 -20.128906 0.941406 -20.140625 1.109375 -20.140625 C 1.273438 -20.140625 1.441406 -20.140625 1.609375 -20.140625 C 3.253906 -20.140625 4.703125 -19.894531 5.953125 -19.40625 C 7.210938 -18.914062 8.316406 -18.257812 9.265625 -17.4375 C 10.222656 -16.613281 11.054688 -15.648438 11.765625 -14.546875 C 12.472656 -13.441406 13.09375 -12.257812 13.625 -11 C 14.164062 -9.738281 14.644531 -8.441406 15.0625 -7.109375 C 15.488281 -5.785156 15.898438 -4.484375 16.296875 -3.203125 C 16.378906 -3.453125 16.519531 -3.875 16.71875 -4.46875 C 16.925781 -5.070312 17.15625 -5.757812 17.40625 -6.53125 C 17.664062 -7.300781 17.925781 -8.101562 18.1875 -8.9375 C 18.445312 -9.769531 18.6875 -10.550781 18.90625 -11.28125 C 19.132812 -12.007812 19.320312 -12.632812 19.46875 -13.15625 C 19.613281 -13.6875 19.6875 -14.019531 19.6875 -14.15625 C 19.6875 -14.488281 19.570312 -14.773438 19.34375 -15.015625 C 19.113281 -15.265625 18.835938 -15.429688 18.515625 -15.515625 L 21.84375 -15.515625 C 21.414062 -15.410156 21.007812 -15.175781 20.625 -14.8125 C 20.25 -14.457031 19.988281 -14.066406 19.84375 -13.640625 Z M 16.421875 -2.65625 "/></g></g></g></g></g><g clip-path="url(#c098bd251b)"><path fill="#059669" d="M 205.089844 39.335938 L 215.140625 40.726562 C 219.179688 41.269531 223.167969 42.078125 227.101562 43.148438 C 229.417969 43.769531 232.003906 44.148438 234.667969 45.085938 L 242.992188 47.886719 C 257.105469 53.054688 270.191406 60.121094 282.257812 69.078125 C 290.046875 74.910156 297.207031 81.433594 303.738281 88.648438 C 310.269531 95.859375 316.050781 103.632812 321.085938 111.960938 C 327.078125 121.847656 331.898438 132.273438 335.550781 143.246094 C 339.199219 154.214844 341.589844 165.453125 342.714844 176.957031 C 342.882812 179.984375 343.0625 183.117188 343.230469 186.222656 C 343.230469 187.734375 343.472656 189.25 343.425781 190.988281 L 343.230469 195.652344 C 343.09375 198.753906 342.972656 201.886719 342.835938 205.035156 C 342.699219 208.183594 341.972656 211.410156 341.550781 214.632812 C 340.882812 221.140625 339.007812 227.394531 337.460938 233.828125 C 337.078125 235.445312 336.574219 237.023438 335.949219 238.566406 L 334.269531 243.257812 L 332.589844 247.980469 L 331.726562 250.339844 L 330.652344 252.625 C 329.21875 255.652344 327.773438 258.679688 326.320312 261.707031 C 325.632812 263.285156 324.824219 264.796875 323.898438 266.25 L 321.28125 270.65625 C 318.011719 276.710938 313.621094 282.039062 309.566406 287.667969 C 307.402344 290.363281 305.023438 292.875 302.679688 295.507812 L 299.183594 299.414062 L 295.320312 302.910156 C 292.71875 305.273438 290.207031 307.753906 287.496094 310.011719 L 279.050781 316.535156 C 267.441406 324.601562 254.832031 331.835938 241.207031 336.410156 L 236.152344 338.300781 L 230.929688 339.707031 C 227.449219 340.601562 223.96875 341.632812 220.457031 342.417969 C 213.3125 343.449219 206.210938 345.082031 198.960938 345.171875 L 193.527344 345.492188 L 190.816406 345.640625 L 187.957031 345.640625 L 177.359375 345.1875 C 173.738281 345 170.140625 344.597656 166.566406 343.976562 L 161.195312 343.113281 L 158.46875 342.707031 L 155.851562 342.054688 L 145.253906 339.4375 C 141.757812 338.558594 138.429688 337.105469 135.023438 335.96875 L 129.9375 334.152344 C 128.257812 333.53125 126.667969 332.640625 125.03125 331.929688 L 115.316406 327.386719 C 109.261719 323.632812 102.84375 320.363281 97.289062 315.914062 L 93.078125 312.675781 C 91.617188 311.675781 90.234375 310.574219 88.929688 309.375 L 80.96875 302.320312 C 71.054688 292.421875 61.867188 281.796875 55.085938 269.867188 L 52.390625 265.507812 C 51.527344 263.996094 50.878906 262.480469 50.074219 260.96875 L 45.609375 251.886719 C 44.308594 248.78125 43.203125 245.601562 42.007812 242.5 L 40.296875 237.824219 C 39.691406 236.308594 39.390625 234.628906 38.917969 233.054688 C 38.070312 229.859375 37.238281 226.683594 36.390625 223.519531 C 35.542969 220.355469 35.273438 217.117188 34.679688 213.9375 L 33.925781 209.167969 C 33.613281 207.59375 33.421875 206.003906 33.347656 204.402344 C 33.167969 201.222656 32.972656 198.058594 32.789062 194.910156 C 32.699219 193.246094 32.621094 191.59375 32.53125 189.960938 C 32.441406 188.324219 32.636719 186.933594 32.699219 185.417969 C 32.800781 182.390625 32.898438 179.421875 33 176.503906 C 33.382812 173.414062 33.761719 170.34375 34.136719 167.285156 C 34.316406 165.773438 34.515625 164.257812 34.695312 162.746094 C 34.878906 161.230469 35.316406 159.824219 35.621094 158.371094 L 37.464844 149.726562 C 38.253906 146.910156 39.148438 144.15625 39.980469 141.402344 C 41.648438 136.015625 43.609375 130.738281 45.867188 125.570312 C 49.941406 116.347656 54.855469 107.59375 60.605469 99.308594 C 66.351562 91.023438 72.832031 83.359375 80.046875 76.3125 C 91.242188 65.378906 103.742188 56.238281 117.554688 48.886719 C 126.507812 44.320312 135.792969 40.570312 145.40625 37.640625 L 155.683594 34.839844 L 158.878906 49.371094 L 149.523438 51.761719 C 140.746094 54.28125 132.253906 57.546875 124.050781 61.554688 C 111.34375 68.074219 99.800781 76.230469 89.414062 86.03125 C 82.691406 92.390625 76.628906 99.324219 71.230469 106.839844 C 65.832031 114.355469 61.191406 122.3125 57.3125 130.714844 C 55.160156 135.433594 53.273438 140.257812 51.648438 145.1875 C 50.863281 147.714844 49.984375 150.242188 49.210938 152.753906 C 48.441406 155.265625 48 158.035156 47.382812 160.699219 C 47.078125 162.046875 46.777344 163.378906 46.457031 164.726562 C 46.140625 166.074219 46.15625 167.480469 45.898438 168.828125 C 45.503906 171.539062 45.109375 174.277344 44.71875 177.019531 C 44.566406 179.964844 44.414062 182.9375 44.261719 185.933594 C 44.261719 187.449219 44.097656 188.960938 44.019531 190.476562 L 44.21875 194.59375 C 44.339844 197.519531 44.460938 200.460938 44.582031 203.417969 C 44.617188 204.902344 44.769531 206.375 45.035156 207.835938 L 45.6875 212.289062 C 46.183594 215.316406 46.382812 218.34375 47.199219 221.21875 C 48.015625 224.09375 48.714844 227.136719 49.410156 230.117188 C 49.816406 231.632812 50.058594 233.144531 50.605469 234.660156 L 52.117188 239.035156 C 53.195312 241.957031 54.148438 244.9375 55.3125 247.84375 C 56.476562 250.75 58.007812 253.535156 59.355469 256.410156 C 60.050781 257.832031 60.65625 259.316406 61.441406 260.695312 L 63.894531 264.8125 C 70.039062 276.074219 78.503906 286.15625 87.660156 295.628906 L 94.957031 302.382812 C 96.164062 303.527344 97.445312 304.582031 98.800781 305.546875 L 102.796875 308.574219 C 107.945312 312.886719 113.921875 316.019531 119.597656 319.683594 L 128.679688 324.222656 C 130.195312 324.949219 131.707031 325.738281 133.222656 326.402344 L 137.988281 328.203125 C 141.199219 329.324219 144.316406 330.761719 147.617188 331.640625 L 157.53125 334.273438 L 160.015625 334.941406 L 162.511719 335.347656 L 167.523438 336.167969 C 170.894531 336.832031 174.292969 337.277344 177.722656 337.5 L 188.320312 338.121094 L 189.96875 338.121094 C 190.121094 338.121094 189.820312 338.121094 190.105469 338.121094 L 190.742188 338.121094 L 193.332031 338.011719 L 198.492188 337.800781 C 205.425781 337.800781 212.113281 336.363281 219.03125 335.5 C 222.40625 334.820312 225.722656 333.882812 229.082031 333.078125 L 234.09375 331.824219 L 238.953125 330.097656 C 252.105469 325.949219 264.230469 319.199219 275.523438 311.628906 L 283.757812 305.574219 C 286.390625 303.441406 288.84375 301.035156 291.324219 298.871094 L 295.09375 295.480469 L 298.53125 291.769531 C 300.785156 289.273438 303.164062 286.898438 305.296875 284.324219 C 309.292969 278.949219 313.636719 273.847656 316.875 268.066406 L 319.480469 263.859375 C 320.398438 262.488281 321.203125 261.054688 321.902344 259.558594 L 326.246094 250.75 L 327.320312 248.554688 L 328.199219 246.269531 L 329.894531 241.726562 L 331.605469 237.1875 C 332.234375 235.714844 332.738281 234.203125 333.117188 232.644531 C 334.632812 226.441406 336.660156 220.339844 337.371094 214.132812 C 337.839844 211.105469 338.460938 208.003906 338.796875 204.902344 C 339.128906 201.796875 339.160156 198.617188 339.339844 195.515625 L 339.613281 190.867188 C 339.613281 189.507812 339.523438 187.839844 339.492188 186.328125 C 339.371094 183.300781 339.265625 180.273438 339.144531 177.246094 C 338.230469 165.9375 336.074219 154.871094 332.679688 144.042969 C 329.285156 133.21875 324.734375 122.902344 319.027344 113.097656 C 314.1875 104.785156 308.597656 97.015625 302.261719 89.785156 C 295.921875 82.554688 288.953125 75.996094 281.351562 70.105469 C 269.507812 61.039062 256.621094 53.832031 242.691406 48.492188 L 234.441406 45.585938 C 231.867188 44.617188 229.308594 44.191406 227.007812 43.542969 C 223.101562 42.402344 219.136719 41.53125 215.113281 40.921875 Z M 205.089844 39.335938 " fill-opacity="1" fill-rule="nonzero"/></g><g clip-path="url(#e19d44abf6)"><path fill="#059669" d="M 131.859375 72.695312 L 152.898438 43.027344 L 123.230469 22.003906 L 144.742188 18.339844 L 174.410156 39.363281 L 153.382812 69.015625 Z M 131.859375 72.695312 " fill-opacity="1" fill-rule="nonzero"/></g></svg>